{
  "asset": {
    "generator": "Khronos glTF Blender I/O v1.6.16",
    "version": "2.0"
  },
  "scene": 0,
  "scenes": [
    {
      "name": "Scene",
      "nodes": [
        0
      ]
    }
  ],
  "nodes": [
    {
      "mesh": 0,
      "name": "sphere_gltf"
    }
  ],
  "materials": [
    {
      "doubleSided": true,
      "name": "rocks_ground_08",
      "normalTexture": {
        "index": 0
      },
      "pbrMetallicRoughness": {
        "baseColorTexture": {
          "index": 1
        },
        "metallicFactor": 0,
        "metallicRoughnessTexture": {
          "index": 2
        }
      }
    }
  ],
  "meshes": [
    {
      "name": "Sphere.001",
      "primitives": [
        {
          "attributes": {
            "POSITION": 0,
            "NORMAL": 1,
            "TEXCOORD_0": 2
          },
          "indices": 3,
          "material": 0
        }
      ]
    }
  ],
  "textures": [
    {
      "sampler": 0,
      "source": 0
    },
    {
      "sampler": 0,
      "source": 1
    },
    {
      "sampler": 0,
      "source": 2
    }
  ],
  "images": [
    {
      "mimeType": "image/jpeg",
      "name": "rocks_ground_08_nor_gl_4k",
      "uri": "textures/rocks_ground_08_nor_gl_2k.jpg"
    },
    {
      "mimeType": "image/jpeg",
      "name": "rocks_ground_08_diff_4k",
      "uri": "textures/rocks_ground_08_diff_2k.jpg"
    },
    {
      "mimeType": "image/jpeg",
      "name": "rocks_ground_08_rough_4k",
      "uri": "textures/rocks_ground_08_rough_2k.jpg"
    }
  ],
  "accessors": [
    {
      "bufferView": 0,
      "componentType": 5126,
      "count": 53897,
      "max": [
        1.5009456872940063,
        1.5250096321105957,
        1.5202322006225586
      ],
      "min": [
        -1.5010663270950317,
        -1.5200252532958984,
        -1.5202393531799316
      ],
      "type": "VEC3"
    },
    {
      "bufferView": 1,
      "componentType": 5126,
      "count": 53897,
      "type": "VEC3"
    },
    {
      "bufferView": 2,
      "componentType": 5126,
      "count": 53897,
      "type": "VEC2"
    },
    {
      "bufferView": 3,
      "componentType": 5123,
      "count": 322170,
      "type": "SCALAR"
    }
  ],
  "bufferViews": [
    {
      "buffer": 0,
      "byteLength": 646764,
      "byteOffset": 0
    },
    {
      "buffer": 0,
      "byteLength": 646764,
      "byteOffset": 646764
    },
    {
      "buffer": 0,
      "byteLength": 431176,
      "byteOffset": 1293528
    },
    {
      "buffer": 0,
      "byteLength": 644340,
      "byteOffset": 1724704
    }
  ],
  "samplers": [
    {
      "magFilter": 9729,
      "minFilter": 9987
    }
  ],
  "buffers": [
    {
      "byteLength": 2369044,
      "uri": "rocks_ground_08.bin"
    }
  ]
}